<svg xmlns="http://www.w3.org/2000/svg" width="1000" height="270" viewBox="0 0 1000 270" fill="none" role="img">
<style>
  .sans { font-family: -apple-system, BlinkMacSystemFont, 'Segoe UI', 'Noto Sans', Helvetica, Arial, sans-serif; }
  .mono { font-family: ui-monospace, SFMono-Regular, 'SF Mono', Menlo, Consolas, 'Liberation Mono', monospace; }
  .c { animation: rise .8s cubic-bezier(.2,.8,.2,1) both; }
  .f { animation: fade .9s ease-out both; }
  @keyframes rise { from { opacity: 0; transform: translateY(16px); } to { opacity: 1; transform: none; } }
  @keyframes fade { from { opacity: 0; transform: translateY(6px); } to { opacity: 1; transform: none; } }
  
  @media (prefers-reduced-motion: reduce) { * { animation: none !important; } }
</style>
<defs>
  <clipPath id="card"><rect width="1000" height="270" rx="12"/></clipPath>
  
</defs>
<rect x="0.5" y="0.5" width="999" height="269" rx="11.5" fill="#0d1117" stroke="#30363d"/>
<g clip-path="url(#card)">
<text x="48" y="62" class="mono" font-size="12" letter-spacing="1.6" fill="#6e7681">LANGUAGES</text>
<g class="f" style="animation-delay:0.10s">
  <rect x="214.0" y="40" width="130.7" height="34" rx="8" fill="#151b23" stroke="#30363d"/>
  <circle cx="230.0" cy="57.0" r="4" fill="#3178c6"/>
  <text x="244.0" y="62" class="mono" font-size="14" fill="#f0f6fc">TypeScript</text>
</g>
<g class="f" style="animation-delay:0.13s">
  <rect x="352.7" y="40" width="130.7" height="34" rx="8" fill="#151b23" stroke="#30363d"/>
  <circle cx="368.7" cy="57.0" r="4" fill="#f1e05a"/>
  <text x="382.7" y="62" class="mono" font-size="14" fill="#f0f6fc">JavaScript</text>
</g>
<g class="f" style="animation-delay:0.16s">
  <rect x="491.4" y="40" width="71.4" height="34" rx="8" fill="#151b23" stroke="#30363d"/>
  <circle cx="507.4" cy="57.0" r="4" fill="#f34b7d"/>
  <text x="521.4" y="62" class="mono" font-size="14" fill="#f0f6fc">C++</text>
</g>
<g class="f" style="animation-delay:0.19s">
  <rect x="570.8" y="40" width="96.8" height="34" rx="8" fill="#151b23" stroke="#30363d"/>
  <circle cx="586.8" cy="57.0" r="4" fill="#3572a5"/>
  <text x="600.8" y="62" class="mono" font-size="14" fill="#f0f6fc">Python</text>
</g>
<g class="f" style="animation-delay:0.22s">
  <rect x="675.6" y="40" width="71.4" height="34" rx="8" fill="#151b23" stroke="#30363d"/>
  <circle cx="691.6" cy="57.0" r="4" fill="#e38c00"/>
  <text x="705.6" y="62" class="mono" font-size="14" fill="#f0f6fc">SQL</text>
</g>
<text x="48" y="114" class="mono" font-size="12" letter-spacing="1.6" fill="#6e7681">FRONTEND</text>
<g class="f" style="animation-delay:0.18s">
  <rect x="214.0" y="92" width="105.3" height="34" rx="8" fill="#151b23" stroke="#30363d"/>
  <circle cx="230.0" cy="109.0" r="4" fill="#3fb950"/>
  <text x="244.0" y="114" class="mono" font-size="14" fill="#f0f6fc">Next.js</text>
</g>
<g class="f" style="animation-delay:0.21s">
  <rect x="327.3" y="92" width="88.3" height="34" rx="8" fill="#151b23" stroke="#30363d"/>
  <circle cx="343.3" cy="109.0" r="4" fill="#3fb950"/>
  <text x="357.3" y="114" class="mono" font-size="14" fill="#f0f6fc">React</text>
</g>
<g class="f" style="animation-delay:0.24s">
  <rect x="423.6" y="92" width="147.6" height="34" rx="8" fill="#151b23" stroke="#30363d"/>
  <circle cx="439.6" cy="109.0" r="4" fill="#3fb950"/>
  <text x="453.6" y="114" class="mono" font-size="14" fill="#f0f6fc">Tailwind CSS</text>
</g>
<g class="f" style="animation-delay:0.27s">
  <rect x="579.3" y="92" width="156.1" height="34" rx="8" fill="#151b23" stroke="#30363d"/>
  <circle cx="595.3" cy="109.0" r="4" fill="#3fb950"/>
  <text x="609.3" y="114" class="mono" font-size="14" fill="#f0f6fc">Framer Motion</text>
</g>
<g class="f" style="animation-delay:0.30s">
  <rect x="743.4" y="92" width="113.8" height="34" rx="8" fill="#151b23" stroke="#30363d"/>
  <circle cx="759.4" cy="109.0" r="4" fill="#3fb950"/>
  <text x="773.4" y="114" class="mono" font-size="14" fill="#f0f6fc">Three.js</text>
</g>
<g class="f" style="animation-delay:0.33s">
  <rect x="865.1" y="92" width="79.9" height="34" rx="8" fill="#151b23" stroke="#30363d"/>
  <circle cx="881.1" cy="109.0" r="4" fill="#3fb950"/>
  <text x="895.1" y="114" class="mono" font-size="14" fill="#f0f6fc">GSAP</text>
</g>
<text x="48" y="166" class="mono" font-size="12" letter-spacing="1.6" fill="#6e7681">BACKEND</text>
<g class="f" style="animation-delay:0.26s">
  <rect x="214.0" y="144" width="105.3" height="34" rx="8" fill="#151b23" stroke="#30363d"/>
  <circle cx="230.0" cy="161.0" r="4" fill="#3fb950"/>
  <text x="244.0" y="166" class="mono" font-size="14" fill="#f0f6fc">Node.js</text>
</g>
<g class="f" style="animation-delay:0.29s">
  <rect x="327.3" y="144" width="105.3" height="34" rx="8" fill="#151b23" stroke="#30363d"/>
  <circle cx="343.3" cy="161.0" r="4" fill="#3fb950"/>
  <text x="357.3" y="166" class="mono" font-size="14" fill="#f0f6fc">Express</text>
</g>
<g class="f" style="animation-delay:0.32s">
  <rect x="440.6" y="144" width="96.8" height="34" rx="8" fill="#151b23" stroke="#30363d"/>
  <circle cx="456.6" cy="161.0" r="4" fill="#3fb950"/>
  <text x="470.6" y="166" class="mono" font-size="14" fill="#f0f6fc">Prisma</text>
</g>
<g class="f" style="animation-delay:0.35s">
  <rect x="545.4" y="144" width="130.7" height="34" rx="8" fill="#151b23" stroke="#30363d"/>
  <circle cx="561.4" cy="161.0" r="4" fill="#3fb950"/>
  <text x="575.4" y="166" class="mono" font-size="14" fill="#f0f6fc">PostgreSQL</text>
</g>
<g class="f" style="animation-delay:0.38s">
  <rect x="684.1" y="144" width="88.3" height="34" rx="8" fill="#151b23" stroke="#30363d"/>
  <circle cx="700.1" cy="161.0" r="4" fill="#3fb950"/>
  <text x="714.1" y="166" class="mono" font-size="14" fill="#f0f6fc">Redis</text>
</g>
<g class="f" style="animation-delay:0.41s">
  <rect x="780.4" y="144" width="122.2" height="34" rx="8" fill="#151b23" stroke="#30363d"/>
  <circle cx="796.4" cy="161.0" r="4" fill="#3fb950"/>
  <text x="810.4" y="166" class="mono" font-size="14" fill="#f0f6fc">Socket.IO</text>
</g>
<text x="48" y="218" class="mono" font-size="12" letter-spacing="1.6" fill="#6e7681">INFRA &amp; TOOLS</text>
<g class="f" style="animation-delay:0.34s">
  <rect x="214.0" y="196" width="96.8" height="34" rx="8" fill="#151b23" stroke="#30363d"/>
  <circle cx="230.0" cy="213.0" r="4" fill="#3fb950"/>
  <text x="244.0" y="218" class="mono" font-size="14" fill="#f0f6fc">Docker</text>
</g>
<g class="f" style="animation-delay:0.37s">
  <rect x="318.8" y="196" width="71.4" height="34" rx="8" fill="#151b23" stroke="#30363d"/>
  <circle cx="334.8" cy="213.0" r="4" fill="#3fb950"/>
  <text x="348.8" y="218" class="mono" font-size="14" fill="#f0f6fc">AWS</text>
</g>
<g class="f" style="animation-delay:0.40s">
  <rect x="398.2" y="196" width="96.8" height="34" rx="8" fill="#151b23" stroke="#30363d"/>
  <circle cx="414.2" cy="213.0" r="4" fill="#3fb950"/>
  <text x="428.2" y="218" class="mono" font-size="14" fill="#f0f6fc">Vercel</text>
</g>
<g class="f" style="animation-delay:0.43s">
  <rect x="503.1" y="196" width="71.4" height="34" rx="8" fill="#151b23" stroke="#30363d"/>
  <circle cx="519.0" cy="213.0" r="4" fill="#3fb950"/>
  <text x="533.0" y="218" class="mono" font-size="14" fill="#f0f6fc">PM2</text>
</g>
<g class="f" style="animation-delay:0.46s">
  <rect x="582.5" y="196" width="130.7" height="34" rx="8" fill="#151b23" stroke="#30363d"/>
  <circle cx="598.5" cy="213.0" r="4" fill="#3fb950"/>
  <text x="612.5" y="218" class="mono" font-size="14" fill="#f0f6fc">Playwright</text>
</g>
<g class="f" style="animation-delay:0.49s">
  <rect x="721.2" y="196" width="96.8" height="34" rx="8" fill="#151b23" stroke="#30363d"/>
  <circle cx="737.2" cy="213.0" r="4" fill="#3fb950"/>
  <text x="751.2" y="218" class="mono" font-size="14" fill="#f0f6fc">Vitest</text>
</g>
<g class="f" style="animation-delay:0.52s">
  <rect x="826.0" y="196" width="71.4" height="34" rx="8" fill="#151b23" stroke="#30363d"/>
  <circle cx="842.0" cy="213.0" r="4" fill="#3fb950"/>
  <text x="856.0" y="218" class="mono" font-size="14" fill="#f0f6fc">Git</text>
</g>
</g>
</svg>
